HIERARCHY
ROOT joint_Root
{
	OFFSET 0.0 0.0 0.0
	CHANNELS 6 Xposition Yposition Zposition Zrotation Xrotation Yrotation 
	JOINT Hips
	{
		OFFSET -0.726466 93.3139 -2.00062
		CHANNELS 6 Xposition Yposition Zposition Zrotation Xrotation Yrotation 
		JOINT Spine
		{
			OFFSET 15.7357 0.0 0.0
			CHANNELS 6 Xposition Yposition Zposition Zrotation Xrotation Yrotation 
			JOINT Chest
			{
				OFFSET 8.98455 -0.406207 0.0
				CHANNELS 6 Xposition Yposition Zposition Zrotation Xrotation Yrotation 
				JOINT Neck
				{
					OFFSET 16.3773 0.0 0.0
					CHANNELS 6 Xposition Yposition Zposition Zrotation Xrotation Yrotation 
					JOINT Head
					{
						OFFSET 6.45672 0.0 0.0
						CHANNELS 6 Xposition Yposition Zposition Zrotation Xrotation Yrotation 
						End Site
						{
							OFFSET 0.0 0.0 0.0
						}
					}
				}
				JOINT Shoulder_L
				{
					OFFSET 12.9942 -0.242716 4.98039
					CHANNELS 6 Xposition Yposition Zposition Zrotation Xrotation Yrotation 
					JOINT UpperArm_L
					{
						OFFSET 5.34809 0.0 0.0
						CHANNELS 6 Xposition Yposition Zposition Zrotation Xrotation Yrotation 
						JOINT LowerArm_L
						{
							OFFSET 24.3286 1.87007e-05 0.0
							CHANNELS 6 Xposition Yposition Zposition Zrotation Xrotation Yrotation 
							JOINT Hand_L
							{
								OFFSET 22.2916 0.0 0.0
								CHANNELS 6 Xposition Yposition Zposition Zrotation Xrotation Yrotation 
								End Site
								{
									OFFSET 0.0 0.0 0.0
								}
							}
						}
					}
				}
				JOINT Shoulder_R
				{
					OFFSET 12.9945 -0.242716 -4.98039
					CHANNELS 6 Xposition Yposition Zposition Zrotation Xrotation Yrotation 
					JOINT UpperArm_R
					{
						OFFSET -5.34813 0.0 0.0
						CHANNELS 6 Xposition Yposition Zposition Zrotation Xrotation Yrotation 
						JOINT LowerArm_R
						{
							OFFSET -24.3289 0.000322201 0.0
							CHANNELS 6 Xposition Yposition Zposition Zrotation Xrotation Yrotation 
							JOINT Hand_R
							{
								OFFSET -22.2915 -0.000108084 0.0
								CHANNELS 6 Xposition Yposition Zposition Zrotation Xrotation Yrotation 
								End Site
								{
									OFFSET 0.0 0.0 0.0
								}
							}
						}
					}
				}
			}
		}
		JOINT UpperLeg_L
		{
			OFFSET -2.19248 -6.46944 0.0
			CHANNELS 6 Xposition Yposition Zposition Zrotation Xrotation Yrotation 
			JOINT LowerLeg_L
			{
				OFFSET 39.0811 0.0 -1.23785e-05
				CHANNELS 6 Xposition Yposition Zposition Zrotation Xrotation Yrotation 
				JOINT Foot_L
				{
					OFFSET 40.9854 0.0 -1.26872e-05
					CHANNELS 6 Xposition Yposition Zposition Zrotation Xrotation Yrotation 
					JOINT Toes_L
					{
						OFFSET 11.7543 0.0 0.0
						CHANNELS 6 Xposition Yposition Zposition Zrotation Xrotation Yrotation 
						End Site
						{
							OFFSET 0.0 0.0 0.0
						}
					}
				}
			}
		}
		JOINT UpperLeg_R
		{
			OFFSET -2.19251 6.46944 0.0
			CHANNELS 6 Xposition Yposition Zposition Zrotation Xrotation Yrotation 
			JOINT LowerLeg_R
			{
				OFFSET -39.0811 -0.00228153 -0.0401928
				CHANNELS 6 Xposition Yposition Zposition Zrotation Xrotation Yrotation 
				JOINT Foot_R
				{
					OFFSET -40.9854 0.0 0.0
					CHANNELS 6 Xposition Yposition Zposition Zrotation Xrotation Yrotation 
					JOINT Toes_R
					{
						OFFSET -11.7543 0.0 0.0
						CHANNELS 6 Xposition Yposition Zposition Zrotation Xrotation Yrotation 
						End Site
						{
							OFFSET 0.0 0.0 0.0
						}
					}
				}
			}
		}
	}
}
MOTION
Frames:	6
Frame Time:	0.0333333
0.000000 0.000000 0.000000 0.000000 0.000000 -0.000000 -1.130220 92.184900 -1.421850 87.886500 0.234796 2.962410 15.735700 0.000005 -0.000001 74.929700 88.016400 -74.518900 8.984550 -0.406207 -0.000000 -3.931690 -1.072720 0.785220 16.377300 -0.000001 -0.000001 -2.526590 -2.198610 -0.731278 6.456720 -0.000001 -0.000000 -5.400620 -2.447900 5.093360 12.994200 -0.242716 4.980390 -83.330800 -12.938900 -62.426000 5.348090 -0.000007 -0.000001 -52.747400 -45.103500 -121.378000 24.328600 0.000019 0.000005 0.820361 0.709832 -49.132900 22.291600 -0.000001 0.000005 19.293300 5.573050 -9.845580 12.994500 -0.242716 -4.980390 93.278000 -6.920870 -64.577800 -5.348130 -0.000001 -0.000004 -60.657000 -41.284900 -132.880000 -24.328900 0.000322 -0.000009 -0.174789 -0.159218 -47.478500 -22.291500 -0.000108 -0.000004 18.405300 5.467010 -5.258920 -2.192480 -6.469440 -0.000000 -168.658000 -15.673900 -2.877610 39.081100 -0.000007 -0.000012 -0.161067 0.441560 20.040600 40.985400 -0.000006 -0.000013 -7.054010 1.110160 -62.156200 11.754300 -0.000000 0.000003 -0.000141 -0.001376 -16.630000 -2.192510 6.469440 -0.000001 174.600000 20.118200 179.272000 -39.081100 -0.002282 -0.040193 0.039533 -0.104558 19.102000 -40.985400 0.000008 0.000006 -0.764221 1.193300 -63.453000 -11.754300 -0.000006 -0.000006 -0.004560 -0.057140 -18.897700
0.000000 0.000000 0.000000 0.000000 0.000000 -0.000000 -1.164420 92.191800 -1.542090 87.826800 0.154177 2.863150 15.735700 0.000005 -0.000001 74.355300 88.023200 -73.950200 8.984550 -0.406207 -0.000000 -3.955190 -1.106900 0.772321 16.377300 -0.000001 -0.000001 -2.475150 -2.156600 -0.762145 6.456720 -0.000001 -0.000000 -5.391440 -2.426950 5.169270 12.994200 -0.242716 4.980390 -83.383400 -12.739900 -62.255200 5.348090 -0.000007 -0.000001 -52.698700 -45.688000 -119.440000 24.328600 0.000019 0.000005 0.589272 0.516462 -48.765700 22.291600 -0.000001 0.000005 19.298300 5.572340 -9.808630 12.994500 -0.242716 -4.980390 93.204600 -6.765930 -64.580800 -5.348130 -0.000001 -0.000004 -60.941800 -42.002000 -131.200000 -24.328900 0.000322 -0.000009 -0.380394 -0.358258 -46.633300 -22.291500 -0.000108 -0.000004 18.461800 5.464500 -5.166220 -2.192480 -6.469440 -0.000000 -168.643000 -15.689100 -3.083070 39.081100 -0.000007 -0.000012 -0.158007 0.431852 20.096800 40.985400 -0.000006 -0.000013 -7.056410 1.021740 -62.108900 11.754300 -0.000000 0.000003 -0.000121 -0.001213 -16.623900 -2.192510 6.469440 -0.000001 174.744000 20.171800 179.080000 -39.081100 -0.002282 -0.040193 0.039842 -0.105608 19.075300 -40.985400 0.000008 0.000006 -0.737600 1.274020 -63.379400 -11.754300 -0.000006 -0.000006 -0.004870 -0.060205 -19.022600
0.000000 0.000000 0.000000 0.000000 0.000000 -0.000000 -1.183300 92.214700 -1.616520 87.813000 0.037329 2.829570 15.735700 0.000005 -0.000001 74.639900 88.028900 -74.259700 8.984550 -0.406207 -0.000000 -3.961340 -1.082420 0.723247 16.377300 -0.000001 -0.000001 -2.367600 -2.109510 -0.711414 6.456720 -0.000001 -0.000000 -5.405390 -2.373870 5.127740 12.994200 -0.242716 4.980390 -83.493800 -12.449600 -62.120400 5.348090 -0.000007 -0.000001 -52.376600 -46.484100 -116.616000 24.328600 0.000019 0.000005 0.278826 0.248572 -48.280600 22.291600 -0.000001 0.000005 19.308000 5.571230 -9.751610 12.994500 -0.242716 -4.980390 93.106900 -6.536320 -64.506400 -5.348130 -0.000001 -0.000004 -60.948900 -42.944200 -128.588000 -24.328900 0.000322 -0.000009 -0.612920 -0.598530 -45.628100 -22.291500 -0.000108 -0.000004 18.498500 5.460250 -5.010080 -2.192480 -6.469440 -0.000000 -168.629000 -15.767000 -3.059380 39.081100 -0.000007 -0.000012 -0.156711 0.432140 19.932900 40.985400 -0.000006 -0.000013 -7.069810 0.966411 -61.985800 11.754300 -0.000000 0.000003 -0.000133 -0.001312 -16.627600 -2.192510 6.469440 -0.000001 174.800000 20.123500 179.012000 -39.081100 -0.002282 -0.040193 0.037465 -0.099253 18.982500 -40.985400 0.000008 0.000006 -0.858472 1.324400 -63.211800 -11.754300 -0.000006 -0.000006 -0.004735 -0.058880 -18.968600
0.000000 0.000000 0.000000 0.000000 0.000000 -0.000000 -1.217130 92.215300 -1.683560 87.783200 -0.040117 2.829410 15.735700 0.000005 -0.000001 74.575800 88.015000 -74.223900 8.984550 -0.406207 -0.000000 -3.935840 -1.091130 0.666628 16.377300 -0.000001 -0.000001 -2.136180 -2.108990 -0.656684 6.456720 -0.000001 -0.000000 -5.670250 -2.424020 5.084510 12.994200 -0.242716 4.980390 -83.567300 -12.231300 -61.978900 5.348090 -0.000007 -0.000001 -51.721100 -47.572000 -112.711000 24.328600 0.000019 0.000005 0.261323 0.235527 -47.972800 22.291600 -0.000001 0.000005 19.350300 5.568430 -9.607580 12.994500 -0.242716 -4.980390 92.970400 -6.242030 -64.487300 -5.348130 -0.000001 -0.000004 -60.429500 -44.314300 -125.000000 -24.328900 0.000322 -0.000009 -0.514818 -0.523138 -44.476800 -22.291500 -0.000108 -0.000004 18.726400 5.456780 -4.883990 -2.192480 -6.469440 -0.000000 -168.581000 -15.801200 -3.095030 39.081100 -0.000007 -0.000012 -0.156389 0.430887 19.948400 40.985400 -0.000006 -0.000013 -7.090260 0.933948 -61.952400 11.754300 -0.000000 0.000003 -0.000120 -0.001199 -16.623400 -2.192510 6.469440 -0.000001 174.873000 20.112900 178.957000 -39.081100 -0.002282 -0.040193 0.039166 -0.104251 18.973900 -40.985400 0.000008 0.000006 -0.676533 1.401230 -63.236600 -11.754300 -0.000006 -0.000006 -0.004855 -0.060050 -19.016300
0.000000 0.000000 0.000000 0.000000 0.000000 -0.000000 -1.235410 92.221300 -1.743230 87.760100 -0.111441 2.799770 15.735700 0.000005 -0.000001 75.179700 88.004000 -74.855000 8.984550 -0.406207 -0.000000 -3.904180 -1.053480 0.613720 16.377300 -0.000001 -0.000001 -2.188510 -1.998120 -0.746654 6.456720 -0.000001 -0.000000 -5.580520 -2.417000 5.194950 12.994200 -0.242716 4.980390 -83.670600 -11.963000 -61.847400 5.348090 -0.000007 -0.000001 -50.802000 -48.752900 -108.097000 24.328600 0.000019 0.000005 0.280408 0.256909 -47.500500 22.291600 -0.000001 0.000005 19.582600 5.568150 -9.594590 12.994500 -0.242716 -4.980390 92.801500 -5.870910 -64.433600 -5.348130 -0.000001 -0.000004 -59.519500 -45.916900 -120.634000 -24.328900 0.000322 -0.000009 -0.397495 -0.419571 -43.368600 -22.291500 -0.000108 -0.000004 18.936900 5.447500 -4.550630 -2.192480 -6.469440 -0.000000 -168.558000 -15.856700 -3.147130 39.081100 -0.000007 -0.000012 -0.156652 0.431991 19.932200 40.985400 -0.000006 -0.000013 -7.093640 0.926126 -61.902800 11.754300 -0.000000 0.000003 -0.000147 -0.001424 -16.631700 -2.192510 6.469440 -0.000001 174.936000 20.059700 178.882000 -39.081100 -0.002282 -0.040193 0.038484 -0.102376 18.955100 -40.985400 0.000008 0.000006 -0.715880 1.412830 -63.176200 -11.754300 -0.000006 -0.000006 -0.005055 -0.062000 -19.095800
0.000000 0.000000 0.000000 0.000000 0.000000 -0.000000 -1.246910 92.228000 -1.789990 87.752300 -0.168115 2.717420 15.735700 0.000005 -0.000001 75.574700 88.000300 -75.278700 8.984550 -0.406207 -0.000000 -3.890370 -1.025770 0.557521 16.377300 -0.000001 -0.000001 -2.304150 -1.943450 -0.750393 6.456720 -0.000001 -0.000000 -5.537660 -2.387980 5.252320 12.994200 -0.242716 4.980390 -83.768300 -11.663900 -61.625900 5.348090 -0.000007 -0.000001 -50.191600 -49.611900 -103.275000 24.328600 0.000019 0.000005 0.223531 0.209669 -46.829200 22.291600 -0.000001 0.000005 19.908800 5.563960 -9.383510 12.994500 -0.242716 -4.980390 92.596200 -5.420090 -64.357100 -5.348130 -0.000001 -0.000004 -58.314200 -47.427600 -115.652000 -24.328900 0.000322 -0.000009 -0.369692 -0.406280 -42.210700 -22.291500 -0.000108 -0.000004 18.814000 5.439280 -4.260310 -2.192480 -6.469440 -0.000000 -168.577000 -15.841900 -3.238490 39.081100 -0.000007 -0.000012 -0.156832 0.433353 19.895600 40.985400 -0.000006 -0.000013 -7.111670 0.827822 -61.861000 11.754300 -0.000000 0.000003 -0.000141 -0.001382 -16.630200 -2.192510 6.469440 -0.000001 174.988000 20.066500 178.766000 -39.081100 -0.002282 -0.040193 0.038151 -0.101546 18.930800 -40.985400 0.000008 0.000006 -0.772509 1.472650 -63.117600 -11.754300 -0.000006 -0.000006 -0.005355 -0.064859 -19.212300
